<svg xmlns="http://www.w3.org/2000/svg" width="30" height="30" viewBox="0 0 30 30">
  <path id="facebook"
    d="M17.99,1.6a27.982,27.982,0,0,0-3.037-.155C11.59,1.44,9.5,3.582,9.5,7.03V9.371H6.675a.5.5,0,0,0-.5.5v3.851a.5.5,0,0,0,.5.5H9.5V21.94a.5.5,0,0,0,.5.5h3.978a.5.5,0,0,0,.5-.5V14.222h2.816a.5.5,0,0,0,.5-.436l.5-3.851a.5.5,0,0,0-.431-.56.505.505,0,0,0-.065,0H14.478V7.412c0-.97.2-1.375,1.408-1.375h2.039a.5.5,0,0,0,.5-.5V2.092A.5.5,0,0,0,17.99,1.6Zm-.565,3.44H15.886c-2.158,0-2.408,1.355-2.408,2.375V9.871a.5.5,0,0,0,.5.5h3.246l-.368,2.851H13.978a.5.5,0,0,0-.5.5V21.44H10.5V13.722a.5.5,0,0,0-.5-.5H7.175V10.371H10a.5.5,0,0,0,.5-.5V7.03c0-2.874,1.665-4.59,4.453-4.59,1.009,0,1.92.055,2.472.1Z"
    transform="translate(-5.675 -0.94)" fill="#242424" stroke="#242424" stroke-width="1" />
</svg>